<svg width="100" height="100" viewBox="0 0 100 100" xmlns="http://www.w3.org/2000/svg">
  <defs>
    <!-- Gradient definitions for cybersecurity theme -->
    <linearGradient id="primaryGradient" x1="0%" y1="0%" x2="100%" y2="100%">
      <stop offset="0%" style="stop-color:#00ffff;stop-opacity:1" />
      <stop offset="50%" style="stop-color:#0066ff;stop-opacity:1" />
      <stop offset="100%" style="stop-color:#ff0080;stop-opacity:1" />
    </linearGradient>
    
    <linearGradient id="shieldGradient" x1="0%" y1="0%" x2="100%" y2="100%">
      <stop offset="0%" style="stop-color:#00ffff;stop-opacity:0.8" />
      <stop offset="100%" style="stop-color:#0066ff;stop-opacity:0.8" />
    </linearGradient>
    
    <filter id="glow" x="-50%" y="-50%" width="200%" height="200%">
      <feGaussianBlur stdDeviation="2" result="coloredBlur"/>
      <feMerge> 
        <feMergeNode in="coloredBlur"/>
        <feMergeNode in="SourceGraphic"/>
      </feMerge>
    </filter>
    
    <filter id="dropShadow" x="-50%" y="-50%" width="200%" height="200%">
      <feDropShadow dx="2" dy="2" stdDeviation="3" flood-color="#00ffff" flood-opacity="0.3"/>
    </filter>
  </defs>
  
  <!-- Background circle with subtle gradient -->
  <circle cx="50" cy="50" r="48" fill="none" stroke="url(#primaryGradient)" stroke-width="1" opacity="0.3"/>
  
  <!-- Outer fence/barrier ring -->
  <circle cx="50" cy="50" r="40" fill="none" stroke="#00ffff" stroke-width="2" stroke-dasharray="5,3" opacity="0.6">
    <animateTransform attributeName="transform" attributeType="XML" type="rotate" from="0 50 50" to="360 50 50" dur="20s" repeatCount="indefinite"/>
  </circle>
  
  <!-- Central shield shape -->
  <path d="M50 15 L35 25 L35 45 Q35 55 50 65 Q65 55 65 45 L65 25 Z" 
        fill="url(#shieldGradient)" 
        stroke="#00ffff" 
        stroke-width="2" 
        filter="url(#glow)"/>
  
  <!-- Lock icon in center of shield -->
  <rect x="45" y="35" width="10" height="8" fill="none" stroke="#ffffff" stroke-width="1.5" rx="2"/>
  <rect x="43" y="40" width="14" height="10" fill="#ffffff" rx="1"/>
  <circle cx="50" cy="45" r="2" fill="#0066ff"/>
  
  <!-- Circuit-like decorative elements -->
  <g stroke="#00ffff" stroke-width="1" fill="none" opacity="0.4">
    <!-- Top left circuit -->
    <path d="M20 25 L25 25 L25 30 L30 30"/>
    <circle cx="30" cy="30" r="1.5" fill="#00ffff"/>
    
    <!-- Top right circuit -->
    <path d="M80 25 L75 25 L75 30 L70 30"/>
    <circle cx="70" cy="30" r="1.5" fill="#00ffff"/>
    
    <!-- Bottom left circuit -->
    <path d="M20 75 L25 75 L25 70 L30 70"/>
    <circle cx="30" cy="70" r="1.5" fill="#00ffff"/>
    
    <!-- Bottom right circuit -->
    <path d="M80 75 L75 75 L75 70 L70 70"/>
    <circle cx="70" cy="70" r="1.5" fill="#00ffff"/>
  </g>
  
  <!-- Hexagonal tech pattern around shield -->
  <g stroke="#ff0080" stroke-width="1" fill="none" opacity="0.3">
    <polygon points="50,20 55,22.5 55,27.5 50,30 45,27.5 45,22.5"/>
    <polygon points="65,35 70,37.5 70,42.5 65,45 60,42.5 60,37.5"/>
    <polygon points="35,35 40,37.5 40,42.5 35,45 30,42.5 30,37.5"/>
    <polygon points="50,70 55,72.5 55,77.5 50,80 45,77.5 45,72.5"/>
  </g>
  
  <!-- Data stream lines -->
  <g opacity="0.2">
    <line x1="10" y1="50" x2="20" y2="50" stroke="#00ffff" stroke-width="1">
      <animate attributeName="x1" values="5;25;5" dur="3s" repeatCount="indefinite"/>
      <animate attributeName="x2" values="15;35;15" dur="3s" repeatCount="indefinite"/>
    </line>
    <line x1="80" y1="50" x2="90" y2="50" stroke="#00ffff" stroke-width="1">
      <animate attributeName="x1" values="75;95;75" dur="3s" repeatCount="indefinite"/>
      <animate attributeName="x2" values="85;105;85" dur="3s" repeatCount="indefinite"/>
    </line>
  </g>
  
  <!-- Corner accent elements -->
  <g stroke="#ff0080" stroke-width="2" fill="none" opacity="0.6">
    <path d="M15 15 L20 15 L20 20"/>
    <path d="M85 15 L80 15 L80 20"/>
    <path d="M15 85 L20 85 L20 80"/>
    <path d="M85 85 L80 85 L80 80"/>
  </g>
  
  <!-- Scanning line effect -->
  <line x1="0" y1="50" x2="100" y2="50" stroke="#00ffff" stroke-width="0.5" opacity="0.8">
    <animate attributeName="y1" values="0;100;0" dur="4s" repeatCount="indefinite"/>
    <animate attributeName="y2" values="0;100;0" dur="4s" repeatCount="indefinite"/>
    <animate attributeName="opacity" values="0;1;0" dur="4s" repeatCount="indefinite"/>
  </line>
</svg>
